<?xml version="1.0" encoding="UTF-8"?>
<svg width="54px" height="100px" viewBox="0 0 54 100" version="1.1" xmlns="http://www.w3.org/2000/svg" xmlns:xlink="http://www.w3.org/1999/xlink">
    <!-- Generator: Sketch 62 (91390) - https://sketch.com -->
    <title>Path</title>
    <desc>Created with Sketch.</desc>
    <g id="Page-1" stroke="none" stroke-width="1" fill="none" fill-rule="evenodd">
        <g id="noun_Arrow_2094744" transform="translate(0.000000, -1.000000)" fill="#000000" fill-rule="nonzero">
            <path d="M1.42,100.16 C1.94925795,100.693605 2.66844846,100.995665 3.42,101.00012 C4.17383608,101.007057 4.89727708,100.703212 5.42,100.16 L52.58,53 C53.1149943,52.4719997 53.4161459,51.751667 53.4161459,51 C53.4161459,50.248333 53.1149943,49.5280003 52.58,49 L5.42,1.83 C4.7139256,1.07519934 3.65252154,0.765354624 2.65125911,1.02175009 C1.64999667,1.27814556 0.868145563,2.05999667 0.611750094,3.06125911 C0.355354624,4.06252154 0.665199338,5.1239256 1.42,5.83 L46.58,51 L1.42,96.16 C0.887492551,96.6893295 0.588064385,97.4091645 0.588064385,98.16 C0.588064385,98.9108355 0.887492551,99.6306705 1.42,100.16 L1.42,100.16 Z" id="Path"></path>
        </g>
    </g>
</svg>