<?xml version="1.0" encoding="UTF-8"?>
<svg width="48px" height="49px" viewBox="0 0 48 49" version="1.1" xmlns="http://www.w3.org/2000/svg" xmlns:xlink="http://www.w3.org/1999/xlink">
    <!-- Generator: Sketch 62 (91390) - https://sketch.com -->
    <title>Shape</title>
    <desc>Created with Sketch.</desc>
    <g id="Page-1" stroke="none" stroke-width="1" fill="none" fill-rule="evenodd">
        <g id="social-instagram" fill="#000000" fill-rule="nonzero">
            <path d="M24,0.375 C37.255,0.375 48,11.12 48,24.375 C48,37.63 37.255,48.375 24,48.375 C10.745,48.375 0,37.63 0,24.375 C0,11.12 10.745,0.375 24,0.375 Z M25.7910449,9 C16.6274794,9 12,15.2612236 12,20.4656164 C11.9954326,21.3945063 12.1163122,22.3198802 12.3595867,23.2173643 C12.906363,25.1764892 14.0859822,26.7567502 15.9541345,27.4845676 C16.1411203,27.583687 16.3650033,27.5886452 16.5563259,27.497904 C16.7476485,27.4071628 16.8832713,27.2316969 16.9211185,27.025943 C17.0071851,26.7019147 17.2198203,25.8893514 17.3109497,25.5304278 C17.4680414,25.1667664 17.3556313,24.7445233 17.0375616,24.5035074 C16.5477348,23.9559841 16.1895304,23.306798 15.9895737,22.6042031 C15.8328186,22.0509389 15.7561216,21.4786651 15.7617502,20.9043008 C15.7617502,16.2582337 19.4069255,12.0957164 25.2594568,12.0957164 C30.443706,12.0957164 33.2889678,15.0867468 33.2889678,19.1395929 C33.2906847,20.2802369 33.1719151,21.4179639 32.9345758,22.5344124 C32.1245368,26.2183648 30.0083101,28.9152772 27.1782365,28.9152772 C25.1531392,28.9152772 23.6343162,27.325046 24.1405905,25.3709062 C24.4190414,24.2642249 24.8189981,23.1126783 25.1531392,22.0309223 C25.5287275,21.0201103 25.7620903,19.9634501 25.846735,18.8903404 C25.846735,17.3948252 25.0012569,16.1336074 23.2495477,16.1336074 C21.1839484,16.1336074 19.5284313,18.1675081 19.5284313,20.8893457 C19.5287206,21.3493542 19.5727903,21.8083238 19.6600626,22.2602346 C19.7621361,22.7926722 19.9322463,23.3102461 20.166337,23.8006152 C20.166337,23.8006152 18.0602357,32.3200667 17.6855927,33.8155819 C16.9514949,36.8066123 17.5742124,40.430744 17.6248398,40.7946527 C17.6461575,40.8934249 17.7237859,40.9710184 17.823766,40.9934898 C17.9237461,41.0159611 18.0278793,40.9792199 18.0906122,40.8993388 C18.2779337,40.6650414 20.7333642,37.7737121 21.5687169,34.8873678 C21.8066658,34.0648344 22.9305948,29.8325265 22.9305948,29.8325265 C23.598877,31.0538639 25.5581587,32.1206647 27.6389462,32.1206647 C32.7016896,32.1206647 36.4177432,28.5463834 37.6226761,23.3270354 C37.8946688,22.0807909 38.0203737,20.8079067 37.9973191,19.5334119 C37.9973191,14.0797666 33.1522737,9 25.7910449,9 Z" id="Shape"></path>
        </g>
    </g>
</svg>