<?xml version="1.0" encoding="UTF-8"?>
<svg width="48px" height="49px" viewBox="0 0 48 49" version="1.1" xmlns="http://www.w3.org/2000/svg" xmlns:xlink="http://www.w3.org/1999/xlink">
    <!-- Generator: Sketch 62 (91390) - https://sketch.com -->
    <title>Shape</title>
    <desc>Created with Sketch.</desc>
    <g id="Page-1" stroke="none" stroke-width="1" fill="none" fill-rule="evenodd">
        <g id="social-instagram" fill="#000000" fill-rule="nonzero">
            <path d="M24,0.375 C37.255,0.375 48,11.12 48,24.375 C48,37.63 37.255,48.375 24,48.375 C10.745,48.375 -7.10542736e-15,37.63 -7.10542736e-15,24.375 C-7.10542736e-15,11.12 10.745,0.375 24,0.375 Z M24.8584041,14.0009401 L24.1539765,14.0009401 C22.8593472,14.0063121 18.2737021,14.0423815 15.0590435,14.2845615 C14.0328447,14.2998181 13.0567575,14.7351304 12.3544166,15.4907624 C11.5468141,16.3401996 11.2818196,18.3151412 11.2818196,18.3151412 C11.109503,19.8438739 11.015438,21.3805677 11,22.9190911 L11,25.0766617 C11.0117302,26.6149493 11.1015818,28.1516173 11.2692008,29.6806116 C11.2692008,29.6806116 11.5341954,31.6385645 12.3417978,32.5007433 C13.3681259,33.6304948 14.7225425,33.5965173 15.3198317,33.7111913 C17.4776445,33.932045 24.4978969,34 24.4978969,34 C24.4978969,34 30.1721452,34 33.9535753,33.702697 C34.9803992,33.6863355 35.9565797,33.2494487 36.6582022,32.4922489 C37.4658046,31.6428116 37.7307992,29.6721172 37.7307992,29.6721172 C37.8984182,28.143123 37.9882698,26.6064549 38,25.0681673 L38,22.9190911 C37.9909207,21.6873209 37.9315992,20.4565818 37.8222182,19.230001 L37.7307992,18.310894 C37.7307992,18.310894 37.4658046,16.348694 36.6582022,15.4907624 C35.9558613,14.7351304 34.9797741,14.2998181 33.9535753,14.2845615 C30.7353369,14.0423815 26.1522053,14.0063121 24.8584041,14.0009401 Z M22,20 L25.1586844,21.812766 L29,24.0170213 L22,28 L22,20 Z" id="Shape"></path>
        </g>
    </g>
</svg>