<?xml version="1.0" encoding="UTF-8"?>
<svg width="48px" height="49px" viewBox="0 0 48 49" version="1.1" xmlns="http://www.w3.org/2000/svg" xmlns:xlink="http://www.w3.org/1999/xlink">
    <!-- Generator: Sketch 62 (91390) - https://sketch.com -->
    <title>Shape</title>
    <desc>Created with Sketch.</desc>
    <g id="Page-1" stroke="none" stroke-width="1" fill="none" fill-rule="evenodd">
        <g id="social-instagram" fill="#000000" fill-rule="nonzero">
            <path d="M24,27.896 C25.943,27.896 27.521,26.318 27.521,24.375 C27.521,22.432 25.943,20.854 24,20.854 C22.056,20.854 20.479,22.432 20.479,24.375 C20.479,26.318 22.056,27.896 24,27.896 Z M31.602,17.584 C32.663,17.584 33.52,16.725 33.52,15.667 C33.52,14.607 32.663,13.75 31.602,13.75 C30.544,13.75 29.686,14.607 29.686,15.667 C29.686,16.725 30.544,17.584 31.602,17.584 Z M31.042,24.375 C31.042,28.264 27.889,31.417 24,31.417 C20.111,31.417 16.958,28.264 16.958,24.375 C16.958,23.557 17.105,22.773 17.362,22.041 L13.958,22.041 L13.958,31.586 C13.958,33.234 15.307,34.583 16.956,34.583 L30.545,34.583 C32.193,34.583 33.542,33.234 33.542,31.586 L33.542,19.041 L28.59,19.041 C30.089,20.333 31.042,22.241 31.042,24.375 Z M24,0.375 C10.745,0.375 0,11.12 0,24.375 C0,37.63 10.745,48.375 24,48.375 C37.255,48.375 48,37.63 48,24.375 C48,11.12 37.255,0.375 24,0.375 Z M36.814,34.107 C36.814,36.306 35.015,38.107 32.814,38.107 L14.685,38.107 C12.485,38.107 10.685,36.306 10.685,34.107 L10.685,15.976 C10.685,13.775 12.485,11.976 14.685,11.976 L32.816,11.976 C35.015,11.976 36.816,13.775 36.816,15.976 L36.816,34.107 L36.814,34.107 Z" id="Shape"></path>
        </g>
    </g>
</svg>