<?xml version="1.0" encoding="UTF-8"?>
<svg width="48px" height="49px" viewBox="0 0 48 49" version="1.1" xmlns="http://www.w3.org/2000/svg" xmlns:xlink="http://www.w3.org/1999/xlink">
    <!-- Generator: Sketch 62 (91390) - https://sketch.com -->
    <title>Shape</title>
    <desc>Created with Sketch.</desc>
    <g id="Page-1" stroke="none" stroke-width="1" fill="none" fill-rule="evenodd">
        <g id="social-instagram" fill="#000000" fill-rule="nonzero">
            <path d="M24,0.375 C37.255,0.375 48,11.12 48,24.375 C48,37.63 37.255,48.375 24,48.375 C10.745,48.375 0,37.63 0,24.375 C0,11.12 10.745,0.375 24,0.375 Z M31.1653433,12.00058 C29.1768753,11.9737921 27.2865135,12.8761323 26.038062,14.4480227 C24.7896105,16.0199132 24.3214778,18.0870875 24.7683326,20.0548776 C19.5104562,19.7990543 14.6003896,17.3115178 11.2369609,13.199618 C9.4936943,16.2025104 10.3951505,20.0673405 13.2796201,21.9571489 C12.2334995,21.9271284 11.2092017,21.6462861 10.2903628,21.1375533 L10.2903628,21.2033233 C10.290656,22.0170987 10.4410514,22.8236184 10.7337693,23.5811624 C11.5659237,25.6701402 13.3793946,27.192081 15.5564378,27.6285481 C14.9906475,27.7808602 14.4079983,27.8590695 13.8226685,27.8612728 C13.4141831,27.8740701 13.0054321,27.8469628 12.6020551,27.7803251 C13.4783295,30.4619832 15.9281034,32.2881926 18.7101043,32.333634 C16.3773375,34.1665593 13.5089138,35.1564958 10.5593959,35.1465671 C10.0382991,35.1469093 9.51762287,35.1165027 9,35.0555009 C12.0087473,36.9847743 15.4955002,38.0059385 19.0538689,38 C29.3319321,37.9797371 35.6492293,30.7652721 37.298303,23.2776085 C37.5912428,21.9797073 37.7416237,20.6528341 37.7466916,19.3212889 L37.7466916,18.4713379 L37.7466916,18.4713379 C39.0208105,17.5446459 40.1224115,16.3951532 41,15.0765932 C39.7999604,15.5990004 38.5309762,15.9399082 37.2335357,16.0884396 C38.6018406,15.2840898 39.6331613,13.999272 40.1331154,12.4761479 C38.8374995,13.2451213 37.4222213,13.7840678 35.9481551,14.069806 C34.6997163,12.7447651 32.9712198,11.9969519 31.1653433,12.00058 Z" id="Shape"></path>
        </g>
    </g>
</svg>