<?xml version="1.0" encoding="UTF-8"?>
<svg width="48px" height="49px" viewBox="0 0 48 49" version="1.1" xmlns="http://www.w3.org/2000/svg" xmlns:xlink="http://www.w3.org/1999/xlink">
    <!-- Generator: Sketch 62 (91390) - https://sketch.com -->
    <title>Shape</title>
    <desc>Created with Sketch.</desc>
    <g id="Page-1" stroke="none" stroke-width="1" fill="none" fill-rule="evenodd">
        <g id="social-instagram" fill="#000000" fill-rule="nonzero">
            <path d="M24,0.375 C37.255,0.375 48,11.12 48,24.375 C48,37.63 37.255,48.375 24,48.375 C10.745,48.375 0,37.63 0,24.375 C0,11.12 10.745,0.375 24,0.375 Z M30.9197861,10 L25.9465241,10 C20.4318182,10 19.1734626,14.0904131 19.1734626,16.7142634 L19.1734626,19.6024942 L16,19.6024942 L16,25.9925175 L19.2185829,25.9925175 L19.2185829,42 L25.6356952,42 L25.6356952,25.9925175 L30.4134358,25.9925175 L30.6440508,23.4983632 L31,19.6074825 L25.8813503,19.5825409 L25.8813503,17.0235386 C25.8813503,15.7764614 26.7185829,15.4871395 27.3051471,15.4871395 L30.9197861,15.4871395 L30.9197861,10 Z" id="Shape"></path>
        </g>
    </g>
</svg>